# xmcd CD database file
#
# Track frame offsets:
#       150
#       17891
#       29551
#       50619
#       72659
#       87522
#       106014
#       126602
#       141897
#       160280
#
# Disc length: 2390 seconds
#
# Revision: 0
# Processed by: cddbd v1.5.2PL0 Copyright (c) Steve Scherf et al.
# Submitted via: jack 3.1.1
#
DISCID=9509540a
DTITLE=Laineen Kasperi - Olet Tässä [CD1)
DYEAR=2010
DGENRE=Rap
TTITLE0=Kaupunki palaa
TTITLE1=Olet tässä
TTITLE2=Laittakaa miut hoitoon
TTITLE3=Vaasankatu
TTITLE4=Dösäri
TTITLE5=Ikuisen maanantain maa
TTITLE6=Henkee
TTITLE7=Musiikki =kuollut
TTITLE8=Tällaine tapaus (feat. Aztra)
TTITLE9=Suomi-neito
EXTD=
EXTT0=
EXTT1=
EXTT2=
EXTT3=
EXTT4=
EXTT5=
EXTT6=
EXTT7=
EXTT8=
EXTT9=
PLAYORDER=
